<svg version="1.1" id="Layer_1" xmlns="http://www.w3.org/2000/svg" xmlns:xlink="http://www.w3.org/1999/xlink" x="0px" y="0px"
	 width="100%" viewBox="0 0 695 695" enable-background="new 0 0 695 695" xml:space="preserve">
<path fill="#090909" opacity="1.000000" stroke="none" 
	d="
M439.000000,696.000000 
	C292.666656,696.000000 146.833328,696.000000 1.000000,696.000000 
	C1.000000,464.333344 1.000000,232.666672 1.000000,1.000000 
	C232.666672,1.000000 464.333344,1.000000 696.000000,1.000000 
	C696.000000,232.666672 696.000000,464.333344 696.000000,696.000000 
	C610.500000,696.000000 525.000000,696.000000 439.000000,696.000000 
M435.500000,626.861694 
	C468.493286,626.854065 501.487366,626.984680 534.479614,626.797974 
	C564.569702,626.627686 590.473450,600.437378 590.594299,570.371460 
	C590.653931,555.539856 590.695923,540.706848 590.539612,525.876648 
	C590.504517,522.554871 591.301941,520.602905 594.419250,518.813232 
	C603.790771,513.433105 608.596069,505.259705 608.536865,494.164856 
	C608.388367,466.334961 608.115906,438.496735 608.646545,410.676270 
	C608.886902,398.078125 603.823792,389.227386 593.596619,382.841400 
	C591.116699,381.292877 590.460938,379.546204 590.486633,376.779877 
	C590.621582,362.282501 590.474670,347.782562 590.600281,333.285004 
	C590.649780,327.562134 590.540833,322.045776 587.088135,317.038300 
	C586.170105,315.706757 586.205627,313.556946 586.200317,311.781647 
	C586.148132,294.283508 586.024536,276.783295 586.228943,259.287262 
	C586.456604,239.803162 577.797424,224.562851 563.559082,212.325134 
	C554.689026,204.701431 543.819824,201.658524 531.965332,202.023758 
	C531.965332,211.351898 531.965332,220.413452 531.965332,229.421066 
	C547.685730,231.578766 557.841858,241.226700 558.791931,255.904175 
	C559.489258,266.676666 558.928650,277.530609 558.928650,287.402466 
	C544.785095,287.402466 530.794067,287.402466 516.622192,287.402466 
	C516.622192,284.587433 516.622375,282.926849 516.622192,281.266266 
	C516.616394,231.937653 516.612427,182.609039 516.598694,133.280426 
	C516.598083,130.948441 516.617981,128.608521 516.445190,126.285919 
	C515.752747,116.975647 508.262177,109.975220 498.935974,109.934296 
	C488.770477,109.889679 478.591431,109.626282 468.446320,110.082207 
	C465.023315,110.236046 461.322327,111.729736 458.388611,113.610001 
	C453.006409,117.059547 451.643402,122.683289 451.648163,128.874741 
	C451.687164,179.536514 451.638550,230.198349 451.616760,280.860168 
	C451.615936,282.790833 451.616669,284.721497 451.616669,286.599731 
	C440.975250,286.599731 430.915009,286.599731 420.679169,286.599731 
	C420.679169,265.736328 420.675354,245.243301 420.680359,224.750275 
	C420.684509,207.751923 420.806000,190.752701 420.669983,173.755508 
	C420.584290,163.043839 413.340607,156.062149 402.652069,156.011520 
	C393.486481,155.968094 384.272461,156.587646 375.167328,155.843811 
	C364.585449,154.979309 355.965637,163.107285 356.131104,175.025909 
	C356.616791,210.015793 356.301056,245.016830 356.299164,280.013489 
	C356.299072,282.149658 356.299164,284.285828 356.299164,286.661438 
	C346.411804,286.661438 336.857361,286.661438 327.041626,286.661438 
	C327.041626,285.050659 327.041199,283.744904 327.041687,282.439148 
	C327.049744,261.441193 327.130157,240.442902 327.035828,219.445389 
	C326.988190,208.842438 319.983704,202.056732 309.394958,202.022354 
	C300.062592,201.992050 290.730103,202.003403 281.397644,202.009354 
	C269.190918,202.017151 262.726349,208.533096 262.715027,220.886688 
	C262.696594,241.051392 262.707642,261.216125 262.706238,281.380859 
	C262.706146,283.153625 262.706238,284.926392 262.706238,286.570862 
	C253.486725,286.570862 244.929260,286.570862 236.090149,286.570862 
	C236.090149,281.191376 236.285965,276.195221 236.049042,271.219696 
	C235.567917,261.116180 228.010544,253.887024 217.892075,253.772232 
	C208.894119,253.670120 199.893936,253.715454 190.895035,253.759033 
	C178.370941,253.819687 171.199539,261.030731 171.057220,273.673767 
	C171.009171,277.943268 171.049606,282.213745 171.049606,287.284576 
	C163.913147,286.765411 157.392929,286.842987 151.086182,285.720795 
	C136.653610,283.152618 126.053520,268.327820 127.598587,253.665222 
	C129.086166,239.548157 140.680161,229.809402 156.064972,229.804688 
	C183.562317,229.796234 211.059647,229.813202 238.556992,229.819427 
	C240.481369,229.819870 242.405731,229.819489 244.437836,229.819489 
	C244.437836,220.211853 244.437836,211.292953 244.437836,202.010620 
	C242.865906,202.010620 241.564377,202.010757 240.262848,202.010605 
	C212.098862,202.007339 183.934753,201.967041 155.770996,202.046158 
	C152.128830,202.056396 148.450226,202.457153 144.853271,203.062134 
	C117.959915,207.585342 98.791534,232.826904 98.926308,257.458038 
	C99.498039,361.944733 99.135696,466.436493 99.177902,570.926392 
	C99.179306,574.395325 99.471428,577.958801 100.288643,581.317505 
	C105.935394,604.524780 127.805328,627.008179 157.526581,626.934753 
	C249.850540,626.706848 342.175446,626.856689 435.500000,626.861694 
z"/>
<path fill="#FCFCFC" opacity="1.000000" stroke="none" 
	d="
M435.000000,626.860840 
	C342.175446,626.856689 249.850540,626.706848 157.526581,626.934753 
	C127.805328,627.008179 105.935394,604.524780 100.288643,581.317505 
	C99.471428,577.958801 99.179306,574.395325 99.177902,570.926392 
	C99.135696,466.436493 99.498039,361.944733 98.926308,257.458038 
	C98.791534,232.826904 117.959915,207.585342 144.853271,203.062134 
	C148.450226,202.457153 152.128830,202.056396 155.770996,202.046158 
	C183.934753,201.967041 212.098862,202.007339 240.262848,202.010605 
	C241.564377,202.010757 242.865906,202.010620 244.437836,202.010620 
	C244.437836,211.292953 244.437836,220.211853 244.437836,229.819489 
	C242.405731,229.819489 240.481369,229.819870 238.556992,229.819427 
	C211.059647,229.813202 183.562317,229.796234 156.064972,229.804688 
	C140.680161,229.809402 129.086166,239.548157 127.598587,253.665222 
	C126.053520,268.327820 136.653610,283.152618 151.086182,285.720795 
	C157.392929,286.842987 163.913147,286.765411 171.049606,287.284576 
	C171.049606,282.213745 171.009171,277.943268 171.057220,273.673767 
	C171.199539,261.030731 178.370941,253.819687 190.895035,253.759033 
	C199.893936,253.715454 208.894119,253.670120 217.892075,253.772232 
	C228.010544,253.887024 235.567917,261.116180 236.049042,271.219696 
	C236.285965,276.195221 236.090149,281.191376 236.090149,286.570862 
	C244.929260,286.570862 253.486725,286.570862 262.706238,286.570862 
	C262.706238,284.926392 262.706146,283.153625 262.706238,281.380859 
	C262.707642,261.216125 262.696594,241.051392 262.715027,220.886688 
	C262.726349,208.533096 269.190918,202.017151 281.397644,202.009354 
	C290.730103,202.003403 300.062592,201.992050 309.394958,202.022354 
	C319.983704,202.056732 326.988190,208.842438 327.035828,219.445389 
	C327.130157,240.442902 327.049744,261.441193 327.041687,282.439148 
	C327.041199,283.744904 327.041626,285.050659 327.041626,286.661438 
	C336.857361,286.661438 346.411804,286.661438 356.299164,286.661438 
	C356.299164,284.285828 356.299072,282.149658 356.299164,280.013489 
	C356.301056,245.016830 356.616791,210.015793 356.131104,175.025909 
	C355.965637,163.107285 364.585449,154.979309 375.167328,155.843811 
	C384.272461,156.587646 393.486481,155.968094 402.652069,156.011520 
	C413.340607,156.062149 420.584290,163.043839 420.669983,173.755508 
	C420.806000,190.752701 420.684509,207.751923 420.680359,224.750275 
	C420.675354,245.243301 420.679169,265.736328 420.679169,286.599731 
	C430.915009,286.599731 440.975250,286.599731 451.616669,286.599731 
	C451.616669,284.721497 451.615936,282.790833 451.616760,280.860168 
	C451.638550,230.198349 451.687164,179.536514 451.648163,128.874741 
	C451.643402,122.683289 453.006409,117.059547 458.388611,113.610001 
	C461.322327,111.729736 465.023315,110.236046 468.446320,110.082207 
	C478.591431,109.626282 488.770477,109.889679 498.935974,109.934296 
	C508.262177,109.975220 515.752747,116.975647 516.445190,126.285919 
	C516.617981,128.608521 516.598083,130.948441 516.598694,133.280426 
	C516.612427,182.609039 516.616394,231.937653 516.622192,281.266266 
	C516.622375,282.926849 516.622192,284.587433 516.622192,287.402466 
	C530.794067,287.402466 544.785095,287.402466 558.928650,287.402466 
	C558.928650,277.530609 559.489258,266.676666 558.791931,255.904175 
	C557.841858,241.226700 547.685730,231.578766 531.965332,229.421066 
	C531.965332,220.413452 531.965332,211.351898 531.965332,202.023758 
	C543.819824,201.658524 554.689026,204.701431 563.559082,212.325134 
	C577.797424,224.562851 586.456604,239.803162 586.228943,259.287262 
	C586.024536,276.783295 586.148132,294.283508 586.200317,311.781647 
	C586.205627,313.556946 586.170105,315.706757 587.088135,317.038300 
	C590.540833,322.045776 590.649780,327.562134 590.600281,333.285004 
	C590.474670,347.782562 590.621582,362.282501 590.486633,376.779877 
	C590.460938,379.546204 591.116699,381.292877 593.596619,382.841400 
	C603.823792,389.227386 608.886902,398.078125 608.646545,410.676270 
	C608.115906,438.496735 608.388367,466.334961 608.536865,494.164856 
	C608.596069,505.259705 603.790771,513.433105 594.419250,518.813232 
	C591.301941,520.602905 590.504517,522.554871 590.539612,525.876648 
	C590.695923,540.706848 590.653931,555.539856 590.594299,570.371460 
	C590.473450,600.437378 564.569702,626.627686 534.479614,626.797974 
	C501.487366,626.984680 468.493286,626.854065 435.000000,626.860840 
M551.465210,314.232849 
	C549.306641,314.141113 547.148132,313.969482 544.989563,313.969116 
	C451.323944,313.953644 357.658325,313.940613 263.992706,313.957550 
	C226.996735,313.964233 190.000763,314.041687 152.205780,313.842529 
	C143.635437,311.196503 135.065094,308.550446 126.372536,305.866699 
	C126.383636,305.692902 126.289970,306.475861 126.289833,307.258820 
	C126.274750,394.725983 126.225082,482.193207 126.300133,569.660278 
	C126.312256,583.795349 134.653137,594.644470 148.252472,598.278381 
	C152.512741,599.416870 157.148376,599.472290 161.612839,599.477478 
	C254.577545,599.585449 347.542328,599.628418 440.507111,599.651550 
	C470.828949,599.659119 501.151276,599.665222 531.472412,599.496155 
	C548.819641,599.399414 562.146118,589.553650 563.068970,574.531067 
	C564.115601,557.493896 563.310547,540.342957 563.310547,522.822388 
	C561.566284,522.822388 560.099060,522.821960 558.631836,522.822510 
	C534.640808,522.831726 510.649414,522.915771 486.659210,522.783325 
	C482.208282,522.758789 477.649323,522.331421 473.331573,521.293823 
	C436.560425,512.456970 413.154785,478.306152 417.631470,440.755859 
	C422.093170,403.331482 455.263000,377.364990 487.918884,378.523926 
	C511.546997,379.362549 535.228638,378.697571 558.886414,378.685303 
	C560.318054,378.684540 561.749634,378.525879 563.445435,378.424988 
	C563.445435,362.372650 563.880981,346.719177 563.249756,331.108826 
	C562.962036,323.994812 559.680725,317.586334 551.465210,314.232849 
M574.444946,405.895630 
	C545.120300,405.898743 515.795715,405.897400 486.471069,405.914032 
	C484.307861,405.915253 482.107666,405.813843 479.987213,406.152100 
	C457.959076,409.666351 441.909607,430.998016 443.811493,454.129517 
	C445.741913,477.607697 464.523590,495.708984 487.052399,495.735748 
	C516.543518,495.770782 546.034668,495.758331 575.525757,495.766205 
	C577.305542,495.766693 579.085388,495.766266 581.005066,495.766266 
	C581.005066,465.582062 581.005066,435.998627 581.005066,405.895294 
	C579.005188,405.895294 577.216858,405.895294 574.444946,405.895630 
z"/>
<path fill="#0A0A0A" opacity="1.000000" stroke="none" 
	d="
M552.066895,314.839447 
	C559.680725,317.586334 562.962036,323.994812 563.249756,331.108826 
	C563.880981,346.719177 563.445435,362.372650 563.445435,378.424988 
	C561.749634,378.525879 560.318054,378.684540 558.886414,378.685303 
	C535.228638,378.697571 511.546997,379.362549 487.918884,378.523926 
	C455.263000,377.364990 422.093170,403.331482 417.631470,440.755859 
	C413.154785,478.306152 436.560425,512.456970 473.331573,521.293823 
	C477.649323,522.331421 482.208282,522.758789 486.659210,522.783325 
	C510.649414,522.915771 534.640808,522.831726 558.631836,522.822510 
	C560.099060,522.821960 561.566284,522.822388 563.310547,522.822388 
	C563.310547,540.342957 564.115601,557.493896 563.068970,574.531067 
	C562.146118,589.553650 548.819641,599.399414 531.472412,599.496155 
	C501.151276,599.665222 470.828949,599.659119 440.507111,599.651550 
	C347.542328,599.628418 254.577545,599.585449 161.612839,599.477478 
	C157.148376,599.472290 152.512741,599.416870 148.252472,598.278381 
	C134.653137,594.644470 126.312256,583.795349 126.300133,569.660278 
	C126.225082,482.193207 126.274750,394.725983 126.289833,307.258820 
	C126.289970,306.475861 126.383636,305.692902 126.372536,305.866699 
	C135.065094,308.550446 143.635437,311.196503 152.710678,314.350281 
	C154.901276,315.238281 156.586838,315.950867 158.272690,315.951569 
	C287.831390,316.003448 417.390137,316.003815 546.948853,315.951477 
	C548.654968,315.950775 550.360901,315.226166 552.066895,314.839447 
z"/>
<path fill="#0C0C0C" opacity="1.000000" stroke="none" 
	d="
M574.936768,405.895447 
	C577.216858,405.895294 579.005188,405.895294 581.005066,405.895294 
	C581.005066,435.998627 581.005066,465.582062 581.005066,495.766266 
	C579.085388,495.766266 577.305542,495.766693 575.525757,495.766205 
	C546.034668,495.758331 516.543518,495.770782 487.052399,495.735748 
	C464.523590,495.708984 445.741913,477.607697 443.811493,454.129517 
	C441.909607,430.998016 457.959076,409.666351 479.987213,406.152100 
	C482.107666,405.813843 484.307861,405.915253 486.471069,405.914032 
	C515.795715,405.897400 545.120300,405.898743 574.936768,405.895447 
M463.443359,451.337311 
	C465.001038,469.260101 481.118988,480.736145 497.017975,475.242584 
	C509.945740,470.775665 517.141724,457.804443 514.210327,444.252228 
	C511.710327,432.694336 499.545654,423.331848 488.279968,424.295013 
	C473.798340,425.533051 464.080872,435.781952 463.443359,451.337311 
z"/>
<path fill="#000000" opacity="1.000000" stroke="none" 
	d="
M551.766052,314.536133 
	C550.360901,315.226166 548.654968,315.950775 546.948853,315.951477 
	C417.390137,316.003815 287.831390,316.003448 158.272690,315.951569 
	C156.586838,315.950867 154.901276,315.238281 153.110184,314.472473 
	C190.000763,314.041687 226.996735,313.964233 263.992706,313.957550 
	C357.658325,313.940613 451.323944,313.953644 544.989563,313.969116 
	C547.148132,313.969482 549.306641,314.141113 551.766052,314.536133 
z"/>
<path fill="#FBFBFB" opacity="1.000000" stroke="none" 
	d="
M463.440125,450.916992 
	C464.080872,435.781952 473.798340,425.533051 488.279968,424.295013 
	C499.545654,423.331848 511.710327,432.694336 514.210327,444.252228 
	C517.141724,457.804443 509.945740,470.775665 497.017975,475.242584 
	C481.118988,480.736145 465.001038,469.260101 463.440125,450.916992 
z"/>
</svg>