<svg version="1.1" id="Layer_1" xmlns="http://www.w3.org/2000/svg" xmlns:xlink="http://www.w3.org/1999/xlink" x="0px" y="0px"
	 width="100%" viewBox="0 0 1024 1024" enable-background="new 0 0 1024 1024" xml:space="preserve">
<path fill="#000000" opacity="1.000000" stroke="none" 
	d="
M681.339355,150.000061 
	C681.339783,195.475769 681.339783,240.451462 681.339783,286.251160 
	C695.088806,286.251160 708.460571,286.251160 722.179932,286.251160 
	C722.026978,286.475616 722.370239,286.206512 722.373169,285.933716 
	C722.505005,273.808136 723.837952,261.617859 721.628052,249.589493 
	C719.696045,239.073975 710.423767,231.134903 699.595337,230.324066 
	C696.188843,230.068970 694.839661,228.759689 694.895569,225.423401 
	C694.998840,219.258698 694.907715,213.090988 694.929932,206.924637 
	C694.951111,201.063110 695.428040,200.622620 701.175659,200.922195 
	C725.052856,202.166718 745.831055,220.465652 750.332642,244.095886 
	C751.085022,248.045456 751.383972,251.980850 751.369934,255.987167 
	C751.317932,270.819733 751.387207,285.652771 751.333618,300.485352 
	C751.305420,308.294373 750.979248,316.089874 753.808716,323.623810 
	C754.480652,325.413055 754.311829,327.564789 754.316772,329.550323 
	C754.355164,344.882996 754.390442,360.216064 754.300110,375.548279 
	C754.282959,378.467224 754.817322,380.383453 757.835327,381.821716 
	C768.241028,386.780884 773.065613,395.863464 773.210999,406.819794 
	C773.599976,436.146820 773.567688,465.485046 773.224060,494.813232 
	C773.099731,505.425537 768.231201,514.121155 758.660095,519.392395 
	C755.229065,521.281982 754.205872,523.566956 754.257263,527.335388 
	C754.459656,542.165466 754.351196,556.999817 754.344299,571.832581 
	C754.329712,602.999084 730.103699,627.299683 698.942200,627.304138 
	C573.113647,627.322083 447.285126,627.321655 321.456604,627.299988 
	C291.459564,627.294800 268.366943,606.810486 264.508545,577.088501 
	C264.056183,573.603516 263.747711,570.152466 263.747742,566.651794 
	C263.749084,464.155731 263.715363,361.659698 263.756836,259.163635 
	C263.767700,232.371536 280.345276,210.191025 305.201202,203.245148 
	C312.179108,201.295181 319.359863,201.144836 326.476013,201.090057 
	C352.306885,200.891220 378.141083,201.108627 403.971375,200.875443 
	C409.007233,200.829987 410.803284,202.282074 410.431641,207.390564 
	C410.009491,213.192871 410.072235,219.065536 410.421692,224.877686 
	C410.695496,229.432434 408.883545,230.449951 404.636627,230.424942 
	C376.971954,230.262146 349.296295,230.778183 321.644196,230.167114 
	C306.978577,229.843002 297.083374,239.453186 294.243713,249.677063 
	C291.125458,260.903839 296.358063,273.693665 306.697205,280.983429 
	C314.630066,286.576660 323.383453,287.006592 332.473938,286.630402 
	C334.882965,286.530731 335.605286,285.155457 335.608582,283.038300 
	C335.614532,279.205292 335.618073,275.372131 335.656372,271.539337 
	C335.756317,261.542725 342.804474,253.976791 352.771332,253.726013 
	C363.097656,253.466171 373.439911,253.483200 383.767334,253.720825 
	C394.137451,253.959427 400.703217,261.671417 401.111145,273.680145 
	C401.245331,277.630432 401.132233,281.589111 401.132233,285.784271 
	C409.032745,286.391876 416.303497,286.671143 423.606384,286.552032 
	C427.256866,286.492493 426.909668,284.062317 426.911407,281.726013 
	C426.924866,263.893494 426.881714,246.060760 426.967102,228.228622 
	C426.987000,224.077667 427.221863,219.902878 427.728119,215.784561 
	C428.643616,208.336884 434.989899,202.336731 442.445526,201.678467 
	C452.915985,200.753998 463.384125,201.040512 473.884216,201.425583 
	C486.126221,201.874527 492.116791,210.194260 492.184967,221.337845 
	C492.303253,240.669739 492.222931,260.002838 492.233826,279.335419 
	C492.237579,286.003723 492.248260,286.022308 498.874542,286.035858 
	C504.207367,286.046753 509.540924,285.950714 514.872986,286.008392 
	C518.025879,286.042480 519.446777,284.458984 519.569458,281.476288 
	C519.637878,279.812073 519.646729,278.144501 519.646912,276.478455 
	C519.650574,242.646408 519.647400,208.814362 519.649414,174.982315 
	C519.650146,162.536774 523.954346,156.558670 536.024414,155.301559 
	C547.567322,154.099350 559.323608,153.773666 570.882202,155.611710 
	C580.237549,157.099411 585.320679,163.569519 585.329895,173.061646 
	C585.364441,208.560257 585.442688,244.059479 585.237793,279.556915 
	C585.208679,284.595490 586.587219,286.413635 591.692200,286.089203 
	C597.834045,285.698822 604.022339,285.869446 610.184509,286.028320 
	C614.055847,286.128082 615.697449,284.392151 615.628845,280.676880 
	C615.601135,279.177704 615.648499,277.677277 615.648499,276.177399 
	C615.649292,227.012604 615.868103,177.846146 615.493408,128.684204 
	C615.399597,116.380051 621.707520,108.831978 633.515198,108.154381 
	C644.140625,107.544624 654.837036,107.094986 665.438660,108.528793 
	C675.344055,109.868462 681.141968,116.563148 681.311096,126.510933 
	C681.441345,134.171906 681.338257,141.836868 681.339355,150.000061 
M615.829285,512.795349 
	C589.878662,497.136475 577.068115,469.537659 581.576233,439.191345 
	C587.182983,401.449615 620.112610,378.084015 651.973206,378.578278 
	C675.132385,378.937592 698.302185,378.566772 721.465759,378.731628 
	C725.587891,378.760956 727.008301,377.478271 726.955566,373.334167 
	C726.773254,359.004395 726.933716,344.670685 726.876404,330.338806 
	C726.830872,318.945282 722.139343,314.382690 710.704529,314.382751 
	C580.215515,314.383545 449.726471,314.362854 319.237457,314.427429 
	C310.846466,314.431580 303.122803,312.486694 295.835510,308.456146 
	C294.884979,307.930420 294.042694,306.820770 292.064911,307.756805 
	C292.064911,310.095551 292.065063,312.722900 292.064911,315.350250 
	C292.061768,374.845184 292.040405,434.340088 292.063782,493.835022 
	C292.074066,519.997986 291.896301,546.165649 292.342377,572.322021 
	C292.600586,587.462097 305.546356,599.636536 320.689514,599.643127 
	C446.678925,599.697998 572.668335,599.694763 698.657715,599.640930 
	C713.377808,599.634644 726.032959,587.791931 726.600464,573.041931 
	C727.163818,558.398560 726.737671,543.719604 727.054688,529.062988 
	C727.160156,524.183411 725.336975,522.806396 720.640686,522.847778 
	C698.977539,523.039062 677.311768,522.915100 655.646912,522.933777 
	C641.765076,522.945679 628.501526,520.526672 615.829285,512.795349 
M676.499939,495.649445 
	C697.815857,495.648743 719.132263,495.578125 740.447327,495.712769 
	C744.217529,495.736603 745.754700,494.814972 745.729248,490.694092 
	C745.566589,464.383270 745.577332,438.070587 745.717041,411.759491 
	C745.738953,407.640839 744.414429,406.282227 740.268188,406.301788 
	C710.293396,406.443298 680.317139,406.297668 650.342346,406.443542 
	C642.050354,406.483887 634.291077,408.866058 627.317871,413.547668 
	C611.697815,424.034485 606.177002,441.126160 609.677002,459.514130 
	C613.276489,478.424469 627.191101,492.444489 646.075195,495.151489 
	C655.709290,496.532562 665.680847,495.559113 676.499939,495.649445 
z"/>
<path fill="#000000" opacity="1.000000" stroke="none" 
	d="
M508.044800,742.249390 
	C510.147003,734.139404 512.250000,726.445435 514.014832,718.674683 
	C514.852783,714.984985 516.498047,713.296021 520.474670,713.592590 
	C524.782532,713.913940 529.160767,713.962097 533.457947,713.572998 
	C538.020386,713.159729 539.874207,715.062866 541.004028,719.324585 
	C547.642822,744.367310 554.518738,769.347168 561.334656,794.342773 
	C561.988098,796.739136 562.777466,799.098389 563.940369,802.903442 
	C566.038635,794.162781 567.783997,786.746704 569.601746,779.348389 
	C574.632019,758.875122 579.724365,738.417114 584.706360,717.932190 
	C585.449829,714.875183 586.900513,713.523315 590.202881,713.600708 
	C598.325989,713.791199 606.456604,713.663086 615.509094,713.663086 
	C613.525696,721.165955 611.828186,727.845398 609.992981,734.486694 
	C600.434326,769.077209 590.747681,803.632996 581.367126,838.271606 
	C580.078857,843.028687 578.025146,844.840576 573.125305,844.438232 
	C567.994446,844.016846 562.786011,844.083618 557.642639,844.417236 
	C553.523193,844.684448 551.773315,843.049683 550.695984,839.178528 
	C543.434082,813.083008 535.970642,787.043579 528.567444,760.987427 
	C528.523743,760.833679 528.407410,760.700562 527.854126,759.741943 
	C526.245605,765.092346 524.755554,769.827026 523.398804,774.599548 
	C517.355591,795.857178 511.266205,817.102356 505.403656,838.409912 
	C504.250854,842.599792 502.347351,844.562988 497.817383,844.299744 
	C492.672119,844.000671 487.469818,844.021545 482.333588,844.426636 
	C477.770538,844.786560 475.829315,842.839600 474.703186,838.649109 
	C468.493500,815.541504 462.093903,792.484863 455.762634,769.409973 
	C451.278046,753.065430 446.787048,736.722656 442.330353,720.370544 
	C441.728729,718.163147 440.785858,715.992310 441.175995,712.993408 
	C450.076538,712.395691 458.984131,712.431946 467.883881,713.159729 
	C470.770569,713.395813 470.655212,716.237122 471.139648,718.171265 
	C475.253296,734.596008 479.236633,751.053406 483.266296,767.499207 
	C486.029205,778.774902 488.803650,790.047668 492.502838,801.505920 
	C497.637482,781.881897 502.772125,762.257874 508.044800,742.249390 
z"/>
<path fill="#000000" opacity="1.000000" stroke="none" 
	d="
M630.580444,791.368896 
	C641.036438,786.503235 652.110229,785.861816 662.819397,783.685608 
	C666.242493,782.989990 669.702759,782.431274 672.878235,780.908813 
	C678.727661,778.104492 679.448486,771.628052 674.409363,767.579529 
	C666.091248,760.896790 649.701965,763.910583 644.807129,773.243896 
	C643.560364,775.621216 642.005310,776.230530 639.691284,776.219055 
	C634.693420,776.194153 629.685181,776.019836 624.700073,776.274902 
	C620.193909,776.505493 619.203125,774.215698 619.721985,770.425842 
	C620.887756,761.910461 625.673828,755.719238 632.554688,751.052490 
	C642.793762,744.107910 654.426453,742.670471 666.412109,743.116760 
	C669.709473,743.239502 673.036194,743.748108 676.260254,744.475159 
	C696.846924,749.118286 704.676819,758.671509 704.964966,779.667114 
	C705.120483,790.993591 704.970215,802.324463 704.939087,813.653320 
	C704.917480,821.541382 704.903198,821.541321 713.255249,823.174744 
	C713.255249,828.950256 713.382446,834.890686 713.201904,840.821777 
	C713.110596,843.820007 710.295959,844.331848 708.142700,844.843689 
	C696.886658,847.519043 684.632812,845.062439 678.874695,831.379883 
	C676.650208,833.874573 674.865662,836.217224 672.744385,838.199524 
	C658.891968,851.145020 630.205933,848.332886 619.421143,833.307068 
	C610.902344,821.438354 611.988831,799.186035 630.580444,791.368896 
M657.306641,825.892639 
	C669.252014,824.827881 676.907654,817.691284 678.507507,805.924805 
	C678.882690,803.165100 679.435059,799.835510 674.709045,800.455383 
	C667.990234,801.336609 661.239380,802.045044 654.569519,803.211792 
	C644.883911,804.906128 640.837830,808.917236 641.384277,815.668335 
	C641.929504,822.403442 646.684692,825.656433 657.306641,825.892639 
z"/>
<path fill="#000000" opacity="1.000000" stroke="none" 
	d="
M415.944427,777.718994 
	C417.260071,770.744690 415.553741,767.697266 409.458771,765.474915 
	C399.710449,761.920288 390.981628,764.929504 385.754974,773.917297 
	C384.603180,775.897949 383.137054,776.211243 381.253021,776.215332 
	C375.925140,776.226868 370.592529,776.098572 365.270874,776.285217 
	C360.939636,776.437012 360.142456,774.410217 361.058594,770.688416 
	C363.365936,761.314636 368.399353,753.862610 376.983002,749.367004 
	C393.184814,740.881592 409.925537,740.563599 426.441132,748.084595 
	C438.556702,753.601807 443.962921,764.215332 444.200256,777.080688 
	C444.584015,797.886047 444.252350,818.703918 444.385559,839.515442 
	C444.409302,843.224426 443.115417,844.539795 439.447479,844.368042 
	C434.463318,844.134705 429.453552,844.146362 424.467499,844.356018 
	C420.741119,844.512634 419.311035,843.007996 419.607819,839.375977 
	C419.782898,837.233887 419.639832,835.065735 419.639832,832.926636 
	C419.141235,832.884277 418.698059,832.727295 418.590637,832.854370 
	C406.562744,847.074036 389.268555,850.888062 372.453918,842.725403 
	C360.150085,836.752502 355.603973,826.432617 356.654968,813.179749 
	C357.568970,801.654114 363.759186,794.096375 374.240295,789.916931 
	C384.661896,785.761169 395.859039,784.903320 406.731476,782.666992 
	C410.157349,781.962341 413.658997,781.367188 415.944427,777.718994 
M405.033569,801.637878 
	C400.357452,802.643311 395.474731,802.581055 390.961151,804.443298 
	C386.269928,806.379028 383.240936,810.589600 383.392181,815.103943 
	C383.552948,819.902832 386.863678,824.177917 391.684387,825.811646 
	C403.851410,829.935181 416.769379,820.357605 417.633179,806.572876 
	C418.006317,800.618164 417.669525,800.338440 411.867828,801.112183 
	C409.901855,801.374329 407.898376,801.355530 405.033569,801.637878 
z"/>
<path fill="#000000" opacity="1.000000" stroke="none" 
	d="
M815.754700,791.217041 
	C816.833618,783.018860 817.831421,775.328674 821.234131,768.099792 
	C830.358521,748.716125 851.369202,741.019470 869.376343,743.077209 
	C898.028320,746.351379 907.909546,765.202026 909.151428,790.122131 
	C909.821594,803.570496 911.184265,801.798645 897.793823,801.897583 
	C881.468201,802.018250 865.141113,801.915771 848.814636,801.932678 
	C842.128723,801.939636 841.335327,803.057129 843.008301,809.682678 
	C845.264526,818.617798 851.278992,823.585938 860.034790,825.120056 
	C868.179688,826.547180 875.674500,824.916992 881.146973,818.117126 
	C882.539307,816.387085 883.841309,815.489502 886.072754,815.445557 
	C891.730164,815.334045 897.385559,815.043945 903.037292,814.742126 
	C907.202759,814.519775 907.800964,816.426025 906.692871,820.006348 
	C902.944031,832.119629 894.810547,839.836670 882.956238,843.673218 
	C871.930481,847.241516 860.727295,847.443298 849.535828,844.344788 
	C831.551331,839.365417 818.488892,823.724731 816.682434,805.103394 
	C816.249268,800.639038 815.328857,796.207764 815.754700,791.217041 
M874.337219,783.594299 
	C875.169861,783.594666 876.002625,783.600769 876.835205,783.594543 
	C883.013123,783.548218 883.291382,783.182861 881.617859,777.326294 
	C879.251221,769.044250 873.105591,764.430420 864.293335,764.319336 
	C853.967773,764.189270 847.011414,769.023010 844.046143,778.017334 
	C842.757141,781.927246 843.570374,783.652710 847.902344,783.595764 
	C856.393799,783.484009 864.888123,783.585083 874.337219,783.594299 
z"/>
<path fill="#000000" opacity="1.000000" stroke="none" 
	d="
M152.649780,825.998962 
	C152.650040,812.008667 152.737320,798.517395 152.623672,785.027771 
	C152.532104,774.159973 147.164017,767.324646 138.342865,766.432922 
	C126.502907,765.235962 116.467705,775.109619 116.374535,788.310547 
	C116.256996,804.964783 116.166534,821.623291 116.438583,838.273804 
	C116.517838,843.124939 115.045128,844.748230 110.232910,844.408630 
	C104.763496,844.022583 99.245262,844.225342 93.751305,844.330994 
	C90.736557,844.388916 89.633659,843.087646 89.638229,840.145142 
	C89.685562,809.666504 89.690910,779.187805 89.629723,748.709229 
	C89.623650,745.682007 90.806969,744.558777 93.774895,744.634460 
	C98.767982,744.761719 103.784126,744.913330 108.758286,744.577148 
	C113.179596,744.278259 114.853004,745.879456 114.405594,750.259399 
	C114.231247,751.966125 113.815964,753.868958 114.908737,755.561157 
	C116.809074,755.238220 117.605522,753.630005 118.779587,752.541687 
	C134.991089,737.512756 162.909668,740.217041 174.066360,757.954102 
	C177.608765,763.585876 179.232742,769.900208 179.282532,776.445007 
	C179.440948,797.262573 179.253204,818.082764 179.403687,838.900452 
	C179.433029,842.960327 178.216721,844.596313 174.015961,844.393250 
	C168.200027,844.112061 162.360336,844.257629 156.532043,844.325256 
	C153.823227,844.356689 152.590576,843.274719 152.647141,840.488098 
	C152.741760,835.826843 152.658463,831.161987 152.649780,825.998962 
z"/>
<path fill="#000000" opacity="1.000000" stroke="none" 
	d="
M236.862701,846.368652 
	C223.710983,846.768982 211.795059,844.610291 202.051620,835.704224 
	C195.855148,830.040100 192.020782,823.061646 190.791428,813.785339 
	C199.105743,813.785339 207.016571,813.728149 214.925644,813.821045 
	C217.210983,813.847900 217.535568,816.130310 218.449646,817.626831 
	C223.843536,826.457520 236.579788,829.383972 245.210358,823.769836 
	C248.506287,821.625977 250.692963,818.647278 250.476700,814.720154 
	C250.265900,810.892212 247.594788,808.527161 244.160324,807.031311 
	C237.237228,804.016235 229.756149,803.153137 222.521118,801.335693 
	C218.178177,800.244751 213.833771,799.079346 209.613815,797.595398 
	C200.001587,794.215393 193.916122,787.614075 192.771729,777.292786 
	C191.557068,766.337708 195.206329,757.192688 204.458527,750.876587 
	C219.865173,740.359070 247.005585,740.377502 262.333862,750.924316 
	C269.003448,755.513489 273.778992,761.544434 274.341309,770.103821 
	C274.530457,772.982971 273.533905,774.454041 270.399506,774.326904 
	C266.574249,774.171814 262.731293,774.154236 258.907806,774.332092 
	C254.105362,774.555420 250.464523,774.129700 247.353592,769.075867 
	C243.080109,762.133423 229.221588,761.434753 222.912949,766.752991 
	C217.601578,771.230530 218.660934,777.691956 225.365082,780.572815 
	C232.142792,783.485352 239.570282,783.877869 246.651306,785.634949 
	C250.675644,786.633484 254.762817,787.461975 258.683563,788.778442 
	C268.794342,792.173279 275.562042,798.890015 277.114105,809.677124 
	C278.714142,820.797546 274.837708,830.003296 265.763733,836.780701 
	C257.356476,843.060242 247.656815,845.665344 236.862701,846.368652 
z"/>
<path fill="#000000" opacity="1.000000" stroke="none" 
	d="
M324.733521,845.651489 
	C309.151703,843.363525 299.751770,832.555542 299.578949,817.237671 
	C299.408081,802.093994 299.046082,786.951721 298.993988,771.807983 
	C298.980499,767.889709 298.029785,766.134583 293.684723,766.206604 
	C284.640778,766.356445 284.637177,766.135010 284.635895,756.862427 
	C284.635864,756.529419 284.635010,756.196472 284.634888,755.863464 
	C284.631287,745.519653 284.625610,745.421570 294.830627,744.828369 
	C297.813507,744.654968 299.015259,743.507690 298.980682,740.596558 
	C298.923279,735.769653 298.983521,730.940735 299.045319,726.113281 
	C299.075531,723.753845 299.661285,721.677002 302.617157,721.765808 
	C309.931854,721.985596 317.157166,720.821777 325.350586,720.032837 
	C325.350586,726.681946 325.594940,732.954224 325.267639,739.196594 
	C325.036255,743.610474 326.559357,745.438538 330.945770,744.784790 
	C331.434753,744.711975 331.947418,744.727539 332.442139,744.774841 
	C336.851715,745.197021 343.332977,742.640747 345.246552,745.886536 
	C348.242096,750.967529 346.262665,757.846436 346.159973,763.962097 
	C346.121368,766.262939 344.123138,766.258789 342.447113,766.274902 
	C338.118744,766.316406 333.786499,766.400818 329.462097,766.266357 
	C326.500946,766.174255 325.293518,767.263428 325.315521,770.324036 
	C325.414673,784.142151 325.338928,797.961487 325.367218,811.780273 
	C325.383575,819.780029 332.112000,822.333496 339.373444,822.562378 
	C340.653564,822.602783 341.948395,822.178650 343.671936,821.898132 
	C344.802765,828.894775 345.898834,835.676514 347.046783,842.779175 
	C339.938965,845.951111 332.728638,847.050415 324.733521,845.651489 
z"/>
<path fill="#000000" opacity="1.000000" stroke="none" 
	d="
M956.336792,731.023438 
	C956.367981,744.704590 956.367981,744.704529 969.744263,744.800842 
	C976.321106,744.848206 976.486328,744.853210 976.290649,751.415588 
	C976.148987,756.165405 978.393494,762.165710 975.120361,765.328186 
	C972.082520,768.263245 966.197266,766.330688 961.598389,766.205383 
	C957.376709,766.090332 956.182739,767.630310 956.245728,771.697449 
	C956.454529,785.181213 956.314636,798.670044 956.352783,812.156860 
	C956.373474,819.467102 961.214539,823.918823 968.245544,822.261414 
	C972.587524,821.237915 973.843384,823.118713 974.108582,826.459656 
	C974.464294,830.941589 975.053772,835.366394 975.976318,839.754517 
	C976.335815,841.464294 975.791870,842.472595 974.188171,843.340759 
	C957.417053,852.420166 934.047546,841.858398 930.075317,823.288025 
	C929.663147,821.361450 929.672729,819.322021 929.668335,817.334473 
	C929.634399,802.016174 929.537537,786.696411 929.716248,771.380127 
	C929.762390,767.419678 928.416382,766.212341 924.524231,766.233887 
	C914.647156,766.288635 914.646179,766.124817 914.648560,756.005249 
	C914.648621,755.672241 914.648438,755.339233 914.648132,755.006226 
	C914.639709,745.117432 914.638550,744.935730 924.695740,744.871155 
	C928.757141,744.845032 929.927063,743.305054 929.707092,739.509766 
	C929.457031,735.195374 929.783569,730.850037 929.618774,726.527344 
	C929.489868,723.144409 930.792664,721.521118 934.240662,721.732056 
	C940.085938,722.089600 945.876343,721.255310 951.619568,720.468567 
	C955.279358,719.967285 956.580627,720.986084 956.348206,724.539246 
	C956.218140,726.528564 956.332031,728.533813 956.336792,731.023438 
z"/>
<path fill="#000000" opacity="1.000000" stroke="none" 
	d="
M42.873127,778.000000 
	C42.874355,758.176208 42.982121,738.851318 42.798199,719.529297 
	C42.755138,715.005493 44.149258,713.289185 48.791286,713.563354 
	C54.767647,713.916382 60.781578,713.728760 66.776810,713.626526 
	C69.758560,713.575745 70.784264,714.705261 70.817535,717.765503 
	C71.248192,757.366882 69.970062,796.968445 70.868164,836.569641 
	C71.043816,844.314758 70.891357,844.320190 63.343800,844.323608 
	C58.679428,844.325684 53.992218,844.031433 49.356876,844.397339 
	C44.372189,844.790894 42.674885,843.122742 42.746204,837.969238 
	C43.020493,818.149353 42.867134,798.323608 42.873127,778.000000 
z"/>
<path fill="#000000" opacity="1.000000" stroke="none" 
	d="
M756.005737,738.000000 
	C756.011658,771.160828 756.017456,803.821594 756.021729,836.482422 
	C756.022766,844.310547 756.020386,844.315613 747.993713,844.321655 
	C743.327881,844.325134 738.658691,844.197571 733.997437,844.340088 
	C730.758301,844.439087 729.567566,843.094360 729.620300,839.904846 
	C729.744263,832.408325 729.648010,824.908264 729.647949,817.409607 
	C729.647583,782.582458 729.755981,747.754700 729.534912,712.928955 
	C729.502136,707.768372 731.089661,706.178101 736.062744,706.566406 
	C741.031799,706.954468 746.062622,706.834778 751.050781,706.602966 
	C754.754822,706.430847 756.098511,707.840454 756.034912,711.506104 
	C755.884766,720.168335 755.998230,728.835083 756.005737,738.000000 
z"/>
<path fill="#000000" opacity="1.000000" stroke="none" 
	d="
M774.663330,835.942749 
	C774.733459,795.128113 774.775208,754.804321 774.898499,714.480774 
	C774.922424,706.655823 775.069214,706.652771 782.948730,706.651855 
	C787.614319,706.651306 792.283264,706.773865 796.944336,706.632385 
	C800.120178,706.535950 801.477417,707.727844 801.376465,710.989136 
	C801.222046,715.983032 801.348206,720.985474 801.348389,725.984314 
	C801.349731,763.309082 801.258301,800.634399 801.457397,837.958130 
	C801.484253,842.990295 800.111206,844.890503 795.009705,844.400940 
	C790.881836,844.004883 786.685974,844.322632 782.520264,844.314453 
	C774.684937,844.299072 774.684937,844.296204 774.663330,835.942749 
z"/>
<path fill="#000000" opacity="1.000000" stroke="none" 
	d="
M635.269409,468.702515 
	C623.364075,455.982574 626.976807,430.433319 646.313538,425.496552 
	C656.099121,422.998291 665.368164,424.435608 672.412109,432.209778 
	C679.885437,440.457855 682.166016,450.256958 678.099609,460.874695 
	C674.293945,470.811493 666.621826,476.287781 656.168701,477.154144 
	C648.166321,477.817383 641.259583,474.579071 635.269409,468.702515 
z"/>
</svg>